<svg xmlns="http://www.w3.org/2000/svg" viewBox="0 0 914.5 969"><defs><style>.cls-1{fill:#edf3ee;}.cls-2{fill:#27aae1;}.cls-3{fill:#cde3f6;}.cls-4{fill:#82c2ea;}.cls-5{fill:#29aae2;}.cls-6{fill:#b2d6f1;}.cls-7{fill:#8cc6ec;}.cls-8{fill:#96caed;}.cls-9{fill:#282828;}.cls-10{fill:#ff7300;}</style></defs><g id="Layer_2" data-name="Layer 2"><g id="Layer_3" data-name="Layer 3"><path class="cls-1" d="M612.52,434.57a14.8,14.8,0,1,0,14.79,14.8,14.79,14.79,0,0,0-14.79-14.8"/><path class="cls-1" d="M678.59,392.05a43,43,0,0,0,0,86h0a43,43,0,0,0,0-86"/><path class="cls-1" d="M819.46,355a10.22,10.22,0,1,0,10.22,10.22A10.21,10.21,0,0,0,819.46,355"/><path class="cls-1" d="M864.07,778.8a14.8,14.8,0,1,0,14.8,14.79,14.8,14.8,0,0,0-14.8-14.79"/><path class="cls-1" d="M819.46,845.92a10.22,10.22,0,1,0,10.22,10.21,10.21,10.21,0,0,0-10.22-10.21"/><path class="cls-1" d="M819.46,758.36a10.22,10.22,0,1,0,10.22,10.22,10.21,10.21,0,0,0-10.22-10.22"/><path class="cls-1" d="M884.86,916.37a20.48,20.48,0,1,0,20.48,20.47,20.47,20.47,0,0,0-20.48-20.47"/><path class="cls-1" d="M322.33,362.44a14.8,14.8,0,1,0,14.8,14.8,14.79,14.79,0,0,0-14.8-14.8"/><path class="cls-1" d="M322.33,428.93a10.22,10.22,0,1,0,10.22,10.22,10.22,10.22,0,0,0-10.22-10.22"/><path class="cls-1" d="M264.29,411.94a27.21,27.21,0,1,0,27.21,27.21,27.21,27.21,0,0,0-27.21-27.21"/><path class="cls-1" d="M536.3,381.55a35.62,35.62,0,1,0,35.62,35.62,35.61,35.61,0,0,0-35.62-35.62"/><path class="cls-1" d="M441.57,392.05a43,43,0,0,0,0,86h0a43,43,0,0,0,0-86"/><path class="cls-1" d="M370.91,435.05a25.17,25.17,0,1,0,25.17,25.16,25.16,25.16,0,0,0-25.17-25.16"/><path class="cls-1" d="M468.45,335.56a26.88,26.88,0,1,0,26.88,26.88,26.89,26.89,0,0,0-26.88-26.88"/><path class="cls-1" d="M370.91,365.18a26.88,26.88,0,1,0,26.88,26.87,26.87,26.87,0,0,0-26.88-26.87"/><path class="cls-1" d="M71.39,609.59a14.8,14.8,0,1,0,14.8,14.8,14.8,14.8,0,0,0-14.8-14.8"/><path class="cls-1" d="M249.83,545a14.8,14.8,0,1,0,14.8,14.8,14.8,14.8,0,0,0-14.8-14.8"/><path class="cls-1" d="M337.13,618.35a14.8,14.8,0,1,0,14.8,14.8,14.8,14.8,0,0,0-14.8-14.8"/><path class="cls-1" d="M637.53,539.42a14.8,14.8,0,1,0,14.8,14.8,14.8,14.8,0,0,0-14.8-14.8"/><path class="cls-1" d="M672.89,487.14a19.19,19.19,0,1,0,19.18,19.18,19.19,19.19,0,0,0-19.18-19.18"/><path class="cls-1" d="M612.52,925.52a14.8,14.8,0,1,0,14.79,14.8,14.8,14.8,0,0,0-14.79-14.8"/><path class="cls-1" d="M833.47,452.78A17.26,17.26,0,1,0,850.73,470a17.26,17.26,0,0,0-17.26-17.26"/><path class="cls-1" d="M766.09,717a14.8,14.8,0,1,0,14.79,14.79A14.8,14.8,0,0,0,766.09,717"/><path class="cls-1" d="M705.47,654a14.8,14.8,0,1,0,14.8,14.8,14.8,14.8,0,0,0-14.8-14.8"/><path class="cls-1" d="M766.09,489.61A67.39,67.39,0,1,0,833.47,557a67.39,67.39,0,0,0-67.38-67.39"/><path class="cls-1" d="M681.83,693.21a60.87,60.87,0,1,0,60.87,60.87,60.86,60.86,0,0,0-60.87-60.87"/><path class="cls-1" d="M678.59,883h0a43,43,0,0,0,0,86h0a43,43,0,0,0,0-86"/><path class="cls-1" d="M785.68,774.61a33.78,33.78,0,1,0,33.78,33.78,33.78,33.78,0,0,0-33.78-33.78"/><path class="cls-1" d="M652.33,580a44.4,44.4,0,1,0,44.39,44.39A44.39,44.39,0,0,0,652.33,580"/><path class="cls-1" d="M862.35,584.76a33.6,33.6,0,1,0,33.59,33.59,33.59,33.59,0,0,0-33.59-33.59"/><path class="cls-1" d="M844.7,657.8a44.4,44.4,0,1,0,44.39,44.4,44.39,44.39,0,0,0-44.39-44.4"/><path class="cls-1" d="M878.87,826.52a35.63,35.63,0,1,0,35.63,35.63,35.63,35.63,0,0,0-35.63-35.63"/><path class="cls-1" d="M760.61,633.15a30.15,30.15,0,1,0,30.14,30.15,30.15,30.15,0,0,0-30.14-30.15"/><path class="cls-1" d="M705.47,826.52a26.88,26.88,0,1,0,26.88,26.88,26.87,26.87,0,0,0-26.88-26.88"/><path class="cls-1" d="M903.41,647.59a10.22,10.22,0,1,0,10.22,10.21,10.22,10.22,0,0,0-10.22-10.21"/><path class="cls-1" d="M879.61,743.86a10.22,10.22,0,1,0,10.22,10.22,10.23,10.23,0,0,0-10.22-10.22"/><path class="cls-1" d="M877.15,545a14.8,14.8,0,1,0,14.79,14.8A14.8,14.8,0,0,0,877.15,545"/><path class="cls-1" d="M236.76,778.8a14.8,14.8,0,1,0,14.8,14.79,14.79,14.79,0,0,0-14.8-14.79"/><path class="cls-1" d="M235,503.05a17.26,17.26,0,1,0,17.26,17.26A17.27,17.27,0,0,0,235,503.05"/><path class="cls-1" d="M181.93,449.37a14.8,14.8,0,1,0,14.79,14.79,14.79,14.79,0,0,0-14.79-14.79"/><path class="cls-1" d="M138.77,717a14.8,14.8,0,1,0,14.8,14.79A14.79,14.79,0,0,0,138.77,717"/><path class="cls-1" d="M138.77,501.2a55.8,55.8,0,1,0,55.8,55.8,55.8,55.8,0,0,0-55.8-55.8"/><path class="cls-1" d="M78.16,654A14.8,14.8,0,1,0,93,668.78,14.8,14.8,0,0,0,78.16,654"/><path class="cls-1" d="M57.83,693.21a57.57,57.57,0,1,0,57.56,57.56,57.56,57.56,0,0,0-57.56-57.56"/><path class="cls-1" d="M57.59,895.63a36.69,36.69,0,0,0,0,73.37h0a36.69,36.69,0,0,0,0-73.37"/><path class="cls-1" d="M158.36,774.61a33.78,33.78,0,1,0,33.78,33.78,33.78,33.78,0,0,0-33.78-33.78"/><path class="cls-1" d="M235,584.76a33.6,33.6,0,1,0,33.59,33.59A33.59,33.59,0,0,0,235,584.76"/><path class="cls-1" d="M217.39,657.8a44.4,44.4,0,1,0,44.39,44.4,44.4,44.4,0,0,0-44.39-44.4"/><path class="cls-1" d="M251.56,826.52a35.63,35.63,0,1,0,35.62,35.63,35.63,35.63,0,0,0-35.62-35.63"/><path class="cls-1" d="M311.72,666.57a35.63,35.63,0,1,0,35.63,35.63,35.63,35.63,0,0,0-35.63-35.63"/><path class="cls-1" d="M133.29,633.15a30.15,30.15,0,1,0,30.15,30.15,30.14,30.14,0,0,0-30.15-30.15"/><path class="cls-1" d="M78.16,826.52A26.88,26.88,0,1,0,105,853.4a26.87,26.87,0,0,0-26.88-26.88"/><path class="cls-1" d="M377.2,533.36A14.8,14.8,0,1,0,392,548.16a14.79,14.79,0,0,0-14.79-14.8"/><path class="cls-1" d="M415.31,491.43A20.65,20.65,0,1,0,436,512.08a20.65,20.65,0,0,0-20.65-20.65"/><path class="cls-1" d="M594.68,517.47a24,24,0,1,0,24,24,24,24,0,0,0-24-24"/><path class="cls-1" d="M350.11,584.86a10.22,10.22,0,1,0,10.21,10.22,10.22,10.22,0,0,0-10.21-10.22"/><path class="cls-1" d="M192.14,845.92a10.22,10.22,0,1,0,10.22,10.21,10.21,10.21,0,0,0-10.22-10.21"/><path class="cls-1" d="M276.09,647.59a10.22,10.22,0,1,0,10.22,10.21,10.21,10.21,0,0,0-10.22-10.21"/><path class="cls-1" d="M252.3,743.86a10.22,10.22,0,1,0,10.21,10.22,10.22,10.22,0,0,0-10.21-10.22"/><path class="cls-1" d="M192.14,758.36a10.22,10.22,0,1,0,10.22,10.22,10.21,10.21,0,0,0-10.22-10.22"/><path class="cls-1" d="M10.22,842.57a10.22,10.22,0,1,0,10.22,10.21,10.21,10.21,0,0,0-10.22-10.21"/><path class="cls-1" d="M441.57,530.18a14.8,14.8,0,1,0,14.8,14.8,14.8,14.8,0,0,0-14.8-14.8"/><path class="cls-1" d="M571.92,609.59a14.8,14.8,0,1,0,14.8,14.79,14.8,14.8,0,0,0-14.8-14.79"/><path class="cls-1" d="M511.79,524.16h0a50.11,50.11,0,1,0,50.11,50.11,50.11,50.11,0,0,0-50.11-50.11"/><path class="cls-1" d="M264.29,902.9a27.21,27.21,0,1,0,27.21,27.21,27.21,27.21,0,0,0-27.21-27.21"/><path class="cls-1" d="M314.75,474.87a35.62,35.62,0,1,0,35.62,35.61,35.61,35.61,0,0,0-35.62-35.61"/><path class="cls-1" d="M415.31,580a44.4,44.4,0,1,0,44.39,44.39A44.4,44.4,0,0,0,415.31,580"/><path class="cls-1" d="M301.52,559.78a30.15,30.15,0,1,0,30.14,30.15,30.15,30.15,0,0,0-30.14-30.15"/><path class="cls-1" d="M523.59,459.46a30.15,30.15,0,1,0,30.14,30.15,30.15,30.15,0,0,0-30.14-30.15"/><path class="cls-1" d="M593.14,475.16a10.22,10.22,0,1,0,10.21,10.22,10.21,10.21,0,0,0-10.21-10.22"/><path class="cls-1" d="M590.66,576.91a10.22,10.22,0,1,0,10.22,10.22,10.22,10.22,0,0,0-10.22-10.22"/><path class="cls-1" d="M615.77,314.41a41.34,41.34,0,1,0,41.34,41.34,41.34,41.34,0,0,0-41.34-41.34"/><path class="cls-1" d="M793.64,161a29.08,29.08,0,1,0,29.08,29.08A29.08,29.08,0,0,0,793.64,161"/><path class="cls-1" d="M764.56,421.83a29.09,29.09,0,1,0,29.08,29.08,29.08,29.08,0,0,0-29.08-29.08"/><path class="cls-1" d="M734.79,59.26a18.53,18.53,0,1,0,18.53,18.52,18.53,18.53,0,0,0-18.53-18.52"/><path class="cls-1" d="M679.3,219.18a16.95,16.95,0,1,0,17,16.95,17,17,0,0,0-17-16.95"/><path class="cls-1" d="M822.7,294.72a19.68,19.68,0,1,0,2,.1c-.67-.06-1.35-.1-2-.1"/><path class="cls-1" d="M604.37,214.13a32.31,32.31,0,1,0,32.31,32.3,32.3,32.3,0,0,0-32.31-32.3"/><path class="cls-1" d="M753.57,378.31a18.78,18.78,0,1,0,18.78,18.78,18.78,18.78,0,0,0-18.78-18.78"/><path class="cls-1" d="M839.68,0a12.78,12.78,0,1,0,12.78,12.78A12.78,12.78,0,0,0,839.68,0"/><path class="cls-1" d="M726.69,206.41a12.78,12.78,0,1,0,12.77,12.77,12.78,12.78,0,0,0-12.77-12.77"/><path class="cls-1" d="M793.64,397.09a12.78,12.78,0,1,0,12.77,12.77,12.78,12.78,0,0,0-12.77-12.77"/><path class="cls-1" d="M839.68,252.44a12.78,12.78,0,1,0,12.78,12.77,12.77,12.77,0,0,0-12.78-12.77"/><path class="cls-1" d="M791.13,92.74a18.78,18.78,0,1,0,18.78,18.78,18.78,18.78,0,0,0-18.78-18.78"/><path class="cls-1" d="M726.69,253.65a55.23,55.23,0,1,0,55.23,55.23,55.24,55.24,0,0,0-55.23-55.23"/><circle class="cls-2" cx="529.98" cy="289.26" r="6.92" transform="translate(-70.35 224.83) rotate(-22.5)"/><path class="cls-2" d="M581,282.57a20.1,20.1,0,1,1-20.09-20.1A20.09,20.09,0,0,1,581,282.57Z"/><path class="cls-2" d="M622,249.9a4.78,4.78,0,1,1,4.77,4.78A4.77,4.77,0,0,1,622,249.9Z"/><path class="cls-2" d="M534.76,338.28a6.92,6.92,0,1,1,6.92,6.92A6.92,6.92,0,0,1,534.76,338.28Z"/><path class="cls-2" d="M640.67,450.19a6.92,6.92,0,1,1,6.92,6.92A6.92,6.92,0,0,1,640.67,450.19Z"/><path class="cls-2" d="M626.73,457.11a15.79,15.79,0,1,1-15.79-15.79,15.79,15.79,0,0,1,15.79,15.79"/><circle class="cls-2" cx="646.79" cy="368.26" r="15.71" transform="translate(226.43 982.47) rotate(-85.27)"/><path class="cls-2" d="M659.29,407.46a20.76,20.76,0,1,1-20.76-20.75A20.75,20.75,0,0,1,659.29,407.46Z"/><path class="cls-2" d="M622,479.43a4.78,4.78,0,1,1,4.77,4.78A4.77,4.77,0,0,1,622,479.43Z"/><path class="cls-2" d="M622,438.5a4.78,4.78,0,1,1,4.77,4.77A4.77,4.77,0,0,1,622,438.5Z"/><path class="cls-2" d="M666.88,517.16a9.57,9.57,0,1,1-9.57-9.57A9.56,9.56,0,0,1,666.88,517.16Z"/><circle class="cls-2" cx="394.32" cy="255.54" r="6.92"/><circle class="cls-2" cx="394.32" cy="284.48" r="4.78" transform="translate(26.85 602.89) rotate(-76.72)"/><path class="cls-2" d="M379.9,284.48a12.72,12.72,0,1,1-12.72-12.72A12.71,12.71,0,0,1,379.9,284.48Z"/><path class="cls-2" d="M511,274.21a16.66,16.66,0,1,1-16.66-16.66A16.66,16.66,0,0,1,511,274.21Z"/><path class="cls-2" d="M470.16,282.57a20.1,20.1,0,1,1-20.09-20.1A20.09,20.09,0,0,1,470.16,282.57Z"/><path class="cls-3" d="M428.8,294.33A11.77,11.77,0,1,1,417,282.57,11.77,11.77,0,0,1,428.8,294.33Z"/><path class="cls-4" d="M475.2,248.62a12.57,12.57,0,1,1-12.57-12.57A12.57,12.57,0,0,1,475.2,248.62Z"/><path class="cls-2" d="M429.6,262.47A12.57,12.57,0,1,1,417,249.9,12.56,12.56,0,0,1,429.6,262.47Z"/><path class="cls-2" d="M345.44,322.43a8.07,8.07,0,1,1,8.07,8.07A8.07,8.07,0,0,1,345.44,322.43Z"/><path class="cls-2" d="M270.08,371.08A6.92,6.92,0,1,1,277,378,6.91,6.91,0,0,1,270.08,371.08Z"/><path class="cls-2" d="M428.13,318.58a9.66,9.66,0,1,1,9.66,9.65A9.66,9.66,0,0,1,428.13,318.58Z"/><path class="cls-2" d="M328.68,479.43a4.78,4.78,0,1,1,4.77,4.78A4.78,4.78,0,0,1,328.68,479.43Z"/><circle class="cls-2" cx="450.07" cy="333.96" r="6.92"/><path class="cls-2" d="M353.51,340.88a6.92,6.92,0,1,1,6.91,6.92A6.91,6.91,0,0,1,353.51,340.88Z"/><circle class="cls-2" cx="401.24" cy="375.18" r="6.92"/><path class="cls-2" d="M398.68,355a14.1,14.1,0,1,1-14.09-14.09A14.09,14.09,0,0,1,398.68,355Z"/><circle class="cls-2" cx="372.7" cy="616.24" r="4.78" transform="translate(-312.68 837.39) rotate(-76.72)"/><circle class="cls-2" cx="482.9" cy="577.19" r="23.43" transform="translate(-147.79 987.76) rotate(-83.15)"/><path class="cls-3" d="M534.76,338.28a6.92,6.92,0,1,1,6.92,6.92A6.92,6.92,0,0,1,534.76,338.28Z"/><circle class="cls-2" cx="558.21" cy="315.89" r="8.97"/><path class="cls-2" d="M523.07,518.79a6.92,6.92,0,1,1,6.91,6.92A6.91,6.91,0,0,1,523.07,518.79Z"/><path class="cls-2" d="M625.21,298.93a8.07,8.07,0,1,1,8.07,8.07A8.07,8.07,0,0,1,625.21,298.93Z"/><circle class="cls-2" cx="601.78" cy="421.3" r="6.92"/><circle class="cls-2" cx="573.44" cy="391.84" r="6.92"/><path class="cls-5" d="M601.78,308.08a31.5,31.5,0,1,0,31.5,31.5,31.5,31.5,0,0,0-31.5-31.5"/><path class="cls-2" d="M638.53,512.1a25,25,0,1,1-25-25A25,25,0,0,1,638.53,512.1Z"/><path class="cls-2" d="M590.85,431.72a28.46,28.46,0,1,1-28.46-28.46A28.46,28.46,0,0,1,590.85,431.72Z"/><path class="cls-2" d="M581,512.1A20.1,20.1,0,1,1,560.88,492,20.09,20.09,0,0,1,581,512.1Z"/><path class="cls-6" d="M610.94,441.32a15.79,15.79,0,1,0,15.79,15.79,15.79,15.79,0,0,0-15.79-15.79"/><path class="cls-2" d="M569.35,371.08a20.76,20.76,0,1,1-20.75-20.75A20.75,20.75,0,0,1,569.35,371.08Z"/><circle class="cls-7" cx="646.79" cy="368.26" r="15.71" transform="translate(226.43 982.47) rotate(-85.27)"/><path class="cls-2" d="M659.29,407.46a20.76,20.76,0,1,1-20.76-20.75A20.75,20.75,0,0,1,659.29,407.46Z"/><circle class="cls-2" cx="654.51" cy="482.24" r="16.66" transform="translate(86.15 1063.54) rotate(-82.03)"/><path class="cls-2" d="M613.31,389.28a14.1,14.1,0,1,1-14.09-14.1A14.09,14.09,0,0,1,613.31,389.28Z"/><path class="cls-2" d="M586,478.15a12.57,12.57,0,1,1-12.57-12.56A12.57,12.57,0,0,1,586,478.15Z"/><path class="cls-2" d="M661.2,386.71a4.78,4.78,0,1,1,4.78,4.78A4.78,4.78,0,0,1,661.2,386.71Z"/><circle class="cls-2" cx="654.85" cy="431.72" r="4.78" transform="translate(-113.47 589.5) rotate(-45)"/><path class="cls-2" d="M646.79,340.88a6.92,6.92,0,1,1,6.91,6.92A6.91,6.91,0,0,1,646.79,340.88Z"/><path class="cls-2" d="M534.76,567.81a6.92,6.92,0,1,1,6.92,6.92A6.92,6.92,0,0,1,534.76,567.81Z"/><path class="cls-2" d="M549.24,545.42a9,9,0,1,1,9,9A9,9,0,0,1,549.24,545.42Z"/><path class="cls-2" d="M638.72,552a8.07,8.07,0,1,1,8.07,8.07A8.07,8.07,0,0,1,638.72,552Z"/><path class="cls-2" d="M520.92,637a6.92,6.92,0,1,1,6.92,6.92A6.91,6.91,0,0,1,520.92,637Z"/><circle class="cls-2" cx="573.44" cy="621.37" r="6.92"/><path class="cls-7" d="M599.74,541.69a29.46,29.46,0,1,0,29.46,29.46,29.46,29.46,0,0,0-29.46-29.46"/><path class="cls-2" d="M569.35,600.61a20.76,20.76,0,1,1-20.75-20.75A20.75,20.75,0,0,1,569.35,600.61Z"/><path class="cls-2" d="M347.39,450.19a6.92,6.92,0,1,1,6.92,6.92A6.92,6.92,0,0,1,347.39,450.19Z"/><path class="cls-6" d="M345.44,322.43a8.07,8.07,0,1,1,8.07,8.07A8.07,8.07,0,0,1,345.44,322.43Z"/><path class="cls-2" d="M321.76,296.18a6.92,6.92,0,1,1,6.92,6.92A6.92,6.92,0,0,1,321.76,296.18Z"/><path class="cls-2" d="M301.58,421.3a6.92,6.92,0,1,1,6.92,6.92A6.92,6.92,0,0,1,301.58,421.3Z"/><path class="cls-7" d="M334.59,339.58a26.09,26.09,0,1,1-26.09-26.09A26.09,26.09,0,0,1,334.59,339.58Z"/><path class="cls-2" d="M273.25,391.84a6.92,6.92,0,1,1,6.91,6.92A6.91,6.91,0,0,1,273.25,391.84Z"/><path class="cls-7" d="M320.24,487.09a25,25,0,1,0,25,25,25,25,0,0,0-25-25"/><circle class="cls-7" cx="270.66" cy="430.17" r="26.91" transform="translate(-42.67 30.01) rotate(-5.88)"/><circle class="cls-2" cx="270.55" cy="515.05" r="17.15" transform="translate(-254.25 766.15) rotate(-87.86)"/><path class="cls-2" d="M333.45,457.11a15.79,15.79,0,1,1-15.79-15.79A15.79,15.79,0,0,1,333.45,457.11Z"/><path class="cls-2" d="M369.21,368.26a15.71,15.71,0,1,1-15.7-15.7A15.7,15.7,0,0,1,369.21,368.26Z"/><circle class="cls-2" cx="345.26" cy="407.46" r="20.75" transform="translate(-130.63 649.87) rotate(-76.72)"/><circle class="cls-6" cx="361.23" cy="482.24" r="16.66" transform="translate(-191.11 723.01) rotate(-76.72)"/><circle class="cls-2" cx="389.36" cy="407.46" r="16.66" transform="translate(-146.19 231.94) rotate(-28.15)"/><circle class="cls-4" cx="305.94" cy="389.28" r="14.09"/><path class="cls-2" d="M292.73,478.15a12.57,12.57,0,1,1-12.57-12.56A12.57,12.57,0,0,1,292.73,478.15Z"/><path class="cls-2" d="M413.05,335.45a6.92,6.92,0,1,1,6.92,6.92A6.92,6.92,0,0,1,413.05,335.45Z"/><path class="cls-2" d="M428.13,318.58a9.66,9.66,0,1,1,9.66,9.65A9.66,9.66,0,0,1,428.13,318.58Z"/><circle class="cls-2" cx="521.64" cy="332.3" r="11.2" transform="translate(78.38 763.64) rotate(-76.72)"/><path class="cls-2" d="M402.53,357.38a4.78,4.78,0,1,1,4.77,4.78A4.78,4.78,0,0,1,402.53,357.38Z"/><path class="cls-2" d="M328.68,479.43a4.78,4.78,0,1,1,4.77,4.78A4.78,4.78,0,0,1,328.68,479.43Z"/><path class="cls-2" d="M367.93,386.71a4.78,4.78,0,1,1,4.77,4.78A4.77,4.77,0,0,1,367.93,386.71Z"/><path class="cls-2" d="M356.8,431.72a4.78,4.78,0,1,1,4.78,4.78A4.78,4.78,0,0,1,356.8,431.72Z"/><path class="cls-2" d="M328.68,438.5a4.78,4.78,0,1,1,4.77,4.77A4.78,4.78,0,0,1,328.68,438.5Z"/><path class="cls-2" d="M243.62,477.86a4.78,4.78,0,1,1,4.78,4.78A4.78,4.78,0,0,1,243.62,477.86Z"/><circle class="cls-2" cx="450.07" cy="333.96" r="6.92"/><circle class="cls-2" cx="511.01" cy="371.08" r="6.92"/><path class="cls-7" d="M506.32,347.66a23.43,23.43,0,1,1-23.43-23.43A23.43,23.43,0,0,1,506.32,347.66Z"/><path class="cls-2" d="M379.9,514a12.72,12.72,0,1,1-12.72-12.72A12.71,12.71,0,0,1,379.9,514Z"/><path class="cls-2" d="M407.42,317.83a16.65,16.65,0,1,1-16.65-16.65A16.64,16.64,0,0,1,407.42,317.83Z"/><path class="cls-2" d="M458.54,371.08a20.76,20.76,0,1,1-20.75-20.75A20.75,20.75,0,0,1,458.54,371.08Z"/><path class="cls-4" d="M398.68,355a14.1,14.1,0,1,1-14.09-14.09A14.09,14.09,0,0,1,398.68,355Z"/><path class="cls-2" d="M502.5,308.08A14.1,14.1,0,1,1,488.41,294,14.09,14.09,0,0,1,502.5,308.08Z"/><path class="cls-2" d="M516.15,306.1a4.78,4.78,0,1,1,4.77,4.77A4.78,4.78,0,0,1,516.15,306.1Z"/><path class="cls-2" d="M515,353.67a4.78,4.78,0,1,1,4.78,4.78A4.78,4.78,0,0,1,515,353.67Z"/><path class="cls-2" d="M345.44,552a8.07,8.07,0,1,1,8.07,8.07A8.07,8.07,0,0,1,345.44,552Z"/><path class="cls-2" d="M256,545.42a9,9,0,1,1,9,9A9,9,0,0,1,256,545.42Z"/><path class="cls-2" d="M498.51,643.17a10.12,10.12,0,1,1,10.12,10.12A10.12,10.12,0,0,1,498.51,643.17Z"/><path class="cls-5" d="M308.5,537.61A31.5,31.5,0,1,0,340,569.11a31.5,31.5,0,0,0-31.51-31.5"/><path class="cls-2" d="M369.21,597.79a15.71,15.71,0,1,1-15.7-15.7A15.7,15.7,0,0,1,369.21,597.79Z"/><circle class="cls-2" cx="389.36" cy="636.99" r="16.66" transform="translate(-113.43 85.12) rotate(-10.9)"/><path class="cls-2" d="M424,567.81a6.92,6.92,0,1,1,6.92,6.92A6.92,6.92,0,0,1,424,567.81Z"/><path class="cls-2" d="M402.53,586.92a4.78,4.78,0,1,1,4.77,4.77A4.78,4.78,0,0,1,402.53,586.92Z"/><path class="cls-2" d="M450.94,650.83a4.78,4.78,0,1,1,4.77,4.78A4.78,4.78,0,0,1,450.94,650.83Z"/><circle class="cls-2" cx="372.7" cy="616.24" r="4.78" transform="translate(-312.68 837.39) rotate(-76.72)"/><circle class="cls-2" cx="450.07" cy="563.49" r="6.92" transform="translate(-65.48 59.21) rotate(-7.02)"/><path class="cls-2" d="M353.51,570.41a6.92,6.92,0,1,1,6.91,6.92A6.91,6.91,0,0,1,353.51,570.41Z"/><path class="cls-2" d="M410.11,637a6.92,6.92,0,1,1,6.92,6.92A6.91,6.91,0,0,1,410.11,637Z"/><path class="cls-2" d="M484.05,650.83a6.92,6.92,0,1,1,6.92,6.92A6.92,6.92,0,0,1,484.05,650.83Z"/><path class="cls-2" d="M504.09,600.61a6.92,6.92,0,1,1,6.92,6.92A6.91,6.91,0,0,1,504.09,600.61Z"/><path class="cls-2" d="M394.32,604.71a6.92,6.92,0,1,1,6.92,6.92A6.92,6.92,0,0,1,394.32,604.71Z"/><path class="cls-2" d="M455.71,621.37a6.92,6.92,0,1,1,6.92,6.92A6.92,6.92,0,0,1,455.71,621.37Z"/><path class="cls-2" d="M531.59,559.31a12.95,12.95,0,1,1-12.94-12.94A12.94,12.94,0,0,1,531.59,559.31Z"/><path class="cls-2" d="M417.89,553.76a16.65,16.65,0,1,1-16.65-16.65A16.65,16.65,0,0,1,417.89,553.76Z"/><path class="cls-2" d="M458.54,600.61a20.76,20.76,0,1,1-20.75-20.75A20.75,20.75,0,0,1,458.54,600.61Z"/><circle class="cls-7" cx="488.41" cy="618.81" r="14.09" transform="translate(-92.81 86.22) rotate(-9.22)"/><path class="cls-3" d="M398.68,584.5a14.1,14.1,0,1,1-14.09-14.09A14.09,14.09,0,0,1,398.68,584.5Z"/><path class="cls-2" d="M516.15,535.63a4.78,4.78,0,1,1,4.77,4.77A4.78,4.78,0,0,1,516.15,535.63Z"/><path class="cls-7" d="M531.5,226.17a19.33,19.33,0,1,0,19.33,19.32,19.32,19.32,0,0,0-19.33-19.32"/><path class="cls-6" d="M614.66,154.45a13.6,13.6,0,1,0,13.6,13.6,13.59,13.59,0,0,0-13.6-13.6"/><path class="cls-7" d="M601.07,276.39A13.6,13.6,0,1,0,614.66,290a13.6,13.6,0,0,0-13.59-13.59"/><path class="cls-3" d="M587.15,106.88a8.66,8.66,0,1,0,8.66,8.66,8.66,8.66,0,0,0-8.66-8.66"/><path class="cls-6" d="M561.21,181.65a7.92,7.92,0,1,0,7.92,7.92,7.92,7.92,0,0,0-7.92-7.92"/><path class="cls-3" d="M628.25,217a9.2,9.2,0,0,0-.92,18.36,7.4,7.4,0,0,0,.94.05,9.2,9.2,0,0,0,.92-18.36c-.32,0-.63,0-.94,0"/><path class="cls-6" d="M526.18,179.28a15.11,15.11,0,1,0,15.1,15.11,15.11,15.11,0,0,0-15.1-15.11"/><path class="cls-6" d="M437.79,628.21a8.78,8.78,0,1,0,8.78,8.78,8.78,8.78,0,0,0-8.78-8.78"/><path class="cls-7" d="M595.93,256a8.78,8.78,0,1,0,8.78,8.78,8.78,8.78,0,0,0-8.78-8.78"/><path class="cls-3" d="M636.19,79.17a6,6,0,1,0,6,6,6,6,0,0,0-6-6"/><path class="cls-6" d="M583.36,175.67a6,6,0,1,0,6,6,6,6,0,0,0-6-6"/><path class="cls-7" d="M614.66,264.82a6,6,0,1,0,6,6,6,6,0,0,0-6-6"/><circle class="cls-2" cx="636.19" cy="203.17" r="5.97" transform="translate(333.74 798.6) rotate(-80.78)"/><path class="cls-8" d="M613.49,122.53a8.78,8.78,0,1,0,8.78,8.78,8.78,8.78,0,0,0-8.78-8.78"/><path class="cls-7" d="M583.36,197.76a25.82,25.82,0,1,0,25.82,25.82,25.82,25.82,0,0,0-25.82-25.82"/><path class="cls-9" d="M119,801.58H92.34v-115h81.22l-4.2,22.45H119v25.19h48l-4.2,22.44H119Z"/><path class="cls-9" d="M211.83,686.61v115H185.19v-115Z"/><path class="cls-9" d="M226,782.2l55.38-73.31H226.68L231,686.61h83.48v19.7l-55.38,73h59.42l-4.2,22.28H226Z"/><path class="cls-9" d="M327.92,782.2l55.39-73.31H328.57l4.36-22.28h83.48v19.7L361,779.3h59.42l-4.2,22.28H327.92Z"/><path class="cls-10" d="M434.33,686.61h52.81q18.08,0,26.4,7.11t8.31,21.47V717q0,17.76-14.21,23.73a25,25,0,0,1,12.84,9.21q4.6,6.45,4.6,17.11v2.91q0,16.64-10.09,24.14t-29.31,7.51H434.33Zm25,20.35v25h22.45q7.9,0,11.14-2.9t3.23-9.21v-1.93q0-5.82-3-8.4T482.94,707Zm0,74.27h24.38q8.56,0,12-2.82T499.25,768v-2.1q0-7.74-3.64-10.73t-12.51-3H459.36Z"/><path class="cls-10" d="M538.16,686.61H564.8V756a75.69,75.69,0,0,0,.89,12.68,17.37,17.37,0,0,0,3.31,8.07,12.83,12.83,0,0,0,6.54,4.2,47.91,47.91,0,0,0,21.4,0,12.85,12.85,0,0,0,6.62-4.2,18.05,18.05,0,0,0,3.39-8.07,69.85,69.85,0,0,0,1-12.68V686.61H634.4v69.27a91.6,91.6,0,0,1-2.26,21.72,31.46,31.46,0,0,1-22.61,24q-9.21,2.91-23.25,2.91T563,801.58a31.46,31.46,0,0,1-22.61-24,91.08,91.08,0,0,1-2.26-21.72Z"/><path class="cls-10" d="M647.8,782.2l55.38-73.31H648.45l4.35-22.28h83.49v19.7l-55.39,73h59.42l-4.2,22.28H647.8Z"/><path class="cls-10" d="M749.69,782.2l55.38-73.31H750.33l4.36-22.28h83.48v19.7l-55.38,73h59.42L838,801.58H749.69Z"/><path class="cls-5" d="M101.67,851.65l-8.79-35.48H97.5c3.6,14.66,6,24.89,6.74,30.44h.05c.83-4.78,5.35-21.8,7.51-30.44H116c2,8,6.58,25.56,7.3,30.24h.05c1.08-6.43,5.61-22.89,7.36-30.24h4.37l-9.52,35.48H120.8c-2-8.22-6.17-24.37-7.1-29.41h0c-1,5.5-5.19,21.34-7.25,29.41Z"/><path class="cls-5" d="M140.24,816.17h4.42v14.91h16.56V816.17h4.42v35.48h-4.42V834.89H144.66v16.76h-4.42Z"/><path class="cls-5" d="M195,834.94H179v13h17.59l-.62,3.75H174.64V816.17h21v3.75H179v11.22h16Z"/><path class="cls-5" d="M202.31,851.65V816.17h5.86c14.14,25.2,16,28.59,16.71,30.14h.05c-.3-4.74-.36-10.44-.36-16.2V816.17h4.17v35.48h-5.4c-15.17-27.3-16.3-29.51-17.07-31h-.05c.25,4.58.25,10.55.25,16.92v14.09Z"/><path class="cls-5" d="M254.35,816.17v35.48h-4.42V816.17Z"/><path class="cls-5" d="M269.72,820H259.34v-3.81h25.25V820H274.15v31.67h-4.43Z"/><path class="cls-5" d="M327.47,841.32c-1.08,5.65-4.78,10.85-13.11,10.85C304,852.17,300,844.3,300,833.65c0-9.35,4.53-18,14.61-18,8.17,0,12,4.93,12.65,11h-4.42c-.88-4.17-3.09-7.2-8.39-7.2-7,0-9.87,6.79-9.87,14.24s2.26,14.82,9.87,14.82c5.3,0,7.51-3.14,8.59-7.15Z"/><path class="cls-5" d="M362.08,833.65c0,10.24-4.73,18.52-15.12,18.52-9.82,0-14.76-7.82-14.76-18.46,0-9.31,4.84-18.05,15.17-18.05C357.14,815.66,362.08,823.42,362.08,833.65Zm-25.3,0c0,8.33,3.39,14.87,10.39,14.87,7.3,0,10.39-6.43,10.39-14.76,0-8.13-3.14-14.35-10.34-14.35S336.78,825.79,336.78,833.6Z"/><path class="cls-5" d="M373.34,816.17v22.58c0,5.6,2.11,9.66,8.38,9.66s8.18-3.85,8.18-9.72V816.17h4.53V838.9c0,7.51-3.14,13.27-12.86,13.27-9,0-12.65-4.73-12.65-13v-23Z"/><path class="cls-5" d="M403,851.65V816.17h5.87c14.14,25.2,16,28.59,16.71,30.14h.05c-.31-4.74-.36-10.44-.36-16.2V816.17h4.17v35.48h-5.4c-15.17-27.3-16.31-29.51-17.08-31h-.05c.26,4.58.26,10.55.26,16.92v14.09Z"/><path class="cls-5" d="M444.82,820H434.43v-3.81h25.25V820H449.24v31.67h-4.42Z"/><path class="cls-5" d="M466.52,841.63c.72,4.62,3.81,6.84,8,6.84s7-2.22,7-6.12-1.85-5.61-8.07-7.56c-7.41-2.27-10.29-4.73-10.29-9.83,0-5.65,4.27-9.25,10.9-9.25,7.61,0,10.85,4.47,11.27,9.51H481c-.56-3.65-2.62-6-7-6-4.17,0-6.22,2-6.22,5.29s1.85,4.68,7.56,6.38c8.74,2.67,10.85,6,10.85,10.9,0,5.92-4.07,10.24-11.83,10.24-7.35,0-11.73-4-12.19-10.44Z"/><path class="cls-5" d="M512.29,851.65v-14a1.81,1.81,0,0,0-.31-1l-11.52-20.52h5c3,5.55,7.77,14.25,9.26,17,2.72-5.09,6.32-11.67,9.25-17h4.68l-11.77,20.62a1.35,1.35,0,0,0-.21.88v14Z"/><path class="cls-5" d="M559.55,833.65c0,10.24-4.73,18.52-15.12,18.52-9.82,0-14.76-7.82-14.76-18.46,0-9.31,4.83-18.05,15.17-18.05C554.61,815.66,559.55,823.42,559.55,833.65Zm-25.3,0c0,8.33,3.39,14.87,10.39,14.87,7.3,0,10.38-6.43,10.38-14.76,0-8.13-3.13-14.35-10.33-14.35S534.25,825.79,534.25,833.6Z"/><path class="cls-5" d="M570.81,816.17v22.58c0,5.6,2.11,9.66,8.38,9.66s8.18-3.85,8.18-9.72V816.17h4.52V838.9c0,7.51-3.13,13.27-12.85,13.27-9,0-12.65-4.73-12.65-13v-23Z"/><path class="cls-5" d="M612.62,816.17h20.77v3.75H616.94V831.7h15.42v3.7H616.94v16.25h-4.32Z"/><path class="cls-5" d="M643.47,816.17v35.48h-4.42V816.17Z"/><path class="cls-5" d="M649.33,848.26,669,819.92H650.36v-3.75h23.76v3.75l-19.44,28h20.11l-.57,3.75H649.33Z"/><path class="cls-5" d="M679.06,848.26l19.64-28.34H680.08v-3.75h23.76v3.75l-19.44,28h20.11l-.56,3.75H679.06Z"/><path class="cls-5" d="M722.77,816.17h12.39c6.38,0,10.39,3.24,10.39,8.74,0,4.68-2.93,6.74-5.09,7.41a8.86,8.86,0,0,1,6.22,8.84c0,6.79-4.94,10.49-12,10.49H722.77Zm11.36,14.6c5,0,7-2,7-5.55,0-3.24-2.11-5.55-6.69-5.55h-7.4v11.1Zm-7,17.39h7.25c4.47,0,7.87-2.16,7.87-6.95,0-4.26-2.73-6.83-8.28-6.83h-6.84Z"/><path class="cls-5" d="M757.07,816.17v22.58c0,5.6,2.11,9.66,8.38,9.66s8.18-3.85,8.18-9.72V816.17h4.52V838.9c0,7.51-3.13,13.27-12.85,13.27-9,0-12.65-4.73-12.65-13v-23Z"/><path class="cls-5" d="M782.52,848.26l19.65-28.34H783.55v-3.75h23.76v3.75l-19.44,28H808l-.57,3.75H782.52Z"/><path class="cls-5" d="M812.25,848.26l19.64-28.34H813.27v-3.75H837v3.75l-19.44,28H837.7l-.56,3.75H812.25Z"/></g></g></svg>