<svg xmlns="http://www.w3.org/2000/svg" viewBox="0 0 1465.02 139.95"><defs><style>.cls-1{fill:#e8e8e8;}.cls-2,.cls-3{fill:#eaeaea;}.cls-3{stroke:#1e1e1e;stroke-miterlimit:10;stroke-width:2px;}</style></defs><g id="Layer_2" data-name="Layer 2"><g id="Layer_1-2" data-name="Layer 1"><path class="cls-1" d="M19.69,42.05V133.1H0V5.12H19.73l51.25,95,51.86-95h19.23v128H122.38V42.26L71.2,136.33Z"/><path class="cls-1" d="M229.82,0l71.9,133.21H280.43L265.6,105.07H193.54l-15,28.14H156.8Zm27,88.57L229.6,37.15,202.31,88.57Z"/><path class="cls-1" d="M397.6,133.1,336.4,76.61V133.1H316.6V5.1h60c27.94,0,46.67,13.68,46.67,38.55,0,25.27-17.13,37.91-45.17,37.91H367.46l58.47,51.54ZM336.4,64.4h41.78c14.76,0,24.9-6.56,24.9-20.75,0-13.89-10.14-20.73-24.9-20.73H336.4Z"/><path class="cls-1" d="M539.18,133.1,470.6,66.68V133.1H450.8V5.1h19.8V58.5l58-53.4h27.8l-64,57.52,74.32,70.48Z"/><path class="cls-1" d="M674.08,134.64c-20.8.07-42.37-5.79-57.28-15.2L627.47,104a93.89,93.89,0,0,0,47.45,12.7c17.88-.16,30-6.95,30.23-18.62.26-10.74-6.95-14.72-25.73-19.05l-16.9-3.86c-27.4-6.21-40.07-17.64-40.17-36.47-.11-20.79,20.82-35,49-35.13a96.63,96.63,0,0,1,49.94,13.7L711.29,32.68C700,25.77,687,21.4,673.22,21.5c-17.61.17-29.86,6.42-29.75,17.8.1,9.9,8,14.79,24.83,18.63L686.35,62c27.22,6.13,39.15,16.54,39.24,36.06.11,21.73-20.92,36.49-51.51,36.58Z"/><path class="cls-1" d="M751,5.1h58.46C837.39,5.1,856,20.8,856,46.35c0,26-17.39,41.07-45.44,41.07H770.79V133.1H751Zm58.63,64.69c16.11,0,26.12-8.61,26.12-23.44,0-14.52-10-23.43-26.12-23.43H770.79V69.79Z"/><path class="cls-1" d="M881.59,5.1H981.75v18H901.28V55.81l58.48.09V73.39H901.28V115h80.58V133.1H881.59Z"/><path class="cls-2" d="M1146.15,23.16h-44.73l-.11-18.06h109V23.16h-44.64V133.1h-19.56Z"/><path class="cls-2" d="M1311.56,133.1l-61.21-56.49V133.1h-19.8V5.1h60.06c27.94,0,46.66,13.68,46.66,38.55,0,25.27-17.12,37.91-45.17,37.91h-10.68l58.47,51.54Zm-61.21-68.7h41.78c14.76,0,24.9-6.55,24.9-20.75,0-13.89-10.14-20.73-24.9-20.73h-41.78Z"/><path class="cls-2" d="M1364.75,5.1h100.16v18h-80.47V55.82l58.48.08V73.39h-58.48V115H1465V133.1H1364.75Z"/><path class="cls-3" d="M1021.87,95.28C1004.45,68.53,1011,32,1036.43,13.7a53.91,53.91,0,0,1,28.44-10.17,62.16,62.16,0,0,0-45.66,11.22c-29.52,21.22-37.08,63.56-16.88,94.57s60.52,39,90,17.73a68,68,0,0,0,26.49-40.64,57.74,57.74,0,0,1-19.32,24.16C1074.07,128.87,1039.3,122,1021.87,95.28Z"/></g></g></svg>